<svg width="80" height="80" viewBox="0 0 80 80" fill="none" xmlns="http://www.w3.org/2000/svg">
<g id="Icon/Wallet" clip-path="url(#clip0_123_1834)">
<circle id="Ellipse 1189" cx="42.5" cy="42" r="38" fill="url(#paint0_radial_123_1834)"/>
<g id="Ellipse 1188">
<circle cx="40" cy="40" r="36" fill="url(#paint1_linear_123_1834)"/>
<circle cx="40" cy="40" r="36" fill="url(#paint2_radial_123_1834)" fill-opacity="0.5"/>
<circle cx="40" cy="40" r="36" fill="url(#paint3_linear_123_1834)"/>
</g>
<g id="Group 1597881716">
<path id="Union" fill-rule="evenodd" clip-rule="evenodd" d="M18.8777 34.4312C20.7528 30.1363 25.0376 27.1346 30.0235 27.1346H48.2928C51.1432 27.1346 53.7645 28.1157 55.8373 29.7586L55.7463 29.4188C54.1232 23.3614 47.8969 19.7666 41.8395 21.3897L27.1424 25.3278C22.7045 26.5169 19.5884 30.177 18.8777 34.4312ZM31.6236 29C25.4202 29 20.3914 34.0288 20.3914 40.2322V45.3989C20.3914 51.6023 25.4202 56.6311 31.6236 56.6311H46.6746C52.1849 56.6311 56.7684 52.6632 57.7238 47.4288C57.7348 47.3684 57.6873 47.3132 57.6259 47.3132H54.7085C52.2245 47.3132 50.2109 45.2995 50.2109 42.8156C50.2109 40.3316 52.2245 38.3179 54.7085 38.3179H57.6259C57.6873 38.3179 57.7349 38.2627 57.7238 38.2023C56.7684 32.9679 52.1849 29 46.6746 29H31.6236ZM52.4434 42.8155C52.4434 41.2605 53.704 40 55.259 40H57.0754C58.6304 40 59.891 41.2605 59.891 42.8155C59.891 44.3705 58.6304 45.6311 57.0754 45.6311H55.259C53.704 45.6311 52.4434 44.3705 52.4434 42.8155ZM54 42.8155C54 42.077 54.5987 41.4784 55.3371 41.4784C56.0756 41.4784 56.6743 42.077 56.6743 42.8155C56.6743 43.554 56.0756 44.1527 55.3371 44.1527C54.5987 44.1527 54 43.554 54 42.8155Z" fill="url(#paint4_linear_123_1834)"/>
</g>
<g id="Group 1597881718">
<circle id="Ellipse 1134" cx="20" cy="19" r="15" fill="url(#paint5_radial_123_1834)"/>
<path id="Star 407" d="M20 13C21.0286 15.7797 23.2203 17.9714 26 19C23.2203 20.0286 21.0286 22.2203 20 25C18.9714 22.2203 16.7797 20.0286 14 19C16.7797 17.9714 18.9714 15.7797 20 13Z" fill="#FBFFFF"/>
</g>
<g id="Group 1597881717">
<circle id="Ellipse 1189_2" cx="56" cy="54" r="8" fill="url(#paint6_radial_123_1834)"/>
<path id="Star 408" d="M56 51C56.5143 52.3899 57.6101 53.4857 59 54C57.6101 54.5143 56.5143 55.6101 56 57C55.4857 55.6101 54.3899 54.5143 53 54C54.3899 53.4857 55.4857 52.3899 56 51Z" fill="#FBFFFF"/>
</g>
</g>
<defs>
<radialGradient id="paint0_radial_123_1834" cx="0" cy="0" r="1" gradientUnits="userSpaceOnUse" gradientTransform="translate(42.5 42) rotate(90) scale(38)">
<stop offset="0.725" stop-color="#6F5514"/>
<stop offset="1" stop-color="#6F5514" stop-opacity="0"/>
</radialGradient>
<linearGradient id="paint1_linear_123_1834" x1="8.5" y1="15" x2="74.1695" y2="65.0914" gradientUnits="userSpaceOnUse">
<stop stop-color="#FFEE96"/>
<stop offset="0.418064" stop-color="#D9BD2D"/>
<stop offset="0.895797" stop-color="#F9DF58"/>
</linearGradient>
<radialGradient id="paint2_radial_123_1834" cx="0" cy="0" r="1" gradientUnits="userSpaceOnUse" gradientTransform="translate(32.5 15) rotate(67.3801) scale(32.5 22.3448)">
<stop stop-color="white"/>
<stop offset="1" stop-color="white" stop-opacity="0"/>
</radialGradient>
<linearGradient id="paint3_linear_123_1834" x1="64.5" y1="60.5" x2="21.194" y2="17.8837" gradientUnits="userSpaceOnUse">
<stop stop-color="#FFE8C0" stop-opacity="0"/>
<stop offset="0.613338" stop-color="#FFE8C0"/>
<stop offset="1" stop-color="#FFE8C0" stop-opacity="0"/>
</linearGradient>
<linearGradient id="paint4_linear_123_1834" x1="27.4415" y1="22.1586" x2="38.0973" y2="58.632" gradientUnits="userSpaceOnUse">
<stop offset="0.0510203" stop-color="#997B2E"/>
<stop offset="1" stop-color="#DDB349"/>
</linearGradient>
<radialGradient id="paint5_radial_123_1834" cx="0" cy="0" r="1" gradientUnits="userSpaceOnUse" gradientTransform="translate(20 19) rotate(90) scale(15)">
<stop stop-color="white"/>
<stop offset="1" stop-color="white" stop-opacity="0"/>
</radialGradient>
<radialGradient id="paint6_radial_123_1834" cx="0" cy="0" r="1" gradientUnits="userSpaceOnUse" gradientTransform="translate(56 54) rotate(90) scale(8)">
<stop stop-color="white"/>
<stop offset="1" stop-color="white" stop-opacity="0"/>
</radialGradient>
<clipPath id="clip0_123_1834">
<rect width="80" height="80" fill="white"/>
</clipPath>
</defs>
</svg>
