<svg width="64" height="64" viewBox="0 0 64 64" fill="none" xmlns="http://www.w3.org/2000/svg">
<g filter="url(#filter0_i_113_2877)">
<rect width="64" height="64" rx="32" fill="#C64444"/>
<g clip-path="url(#clip0_113_2877)">
<path d="M33.7222 20.4971L36.078 25.2737C36.4354 25.9886 37.1015 26.476 37.8814 26.5897L43.1454 27.3533C45.1113 27.6458 45.9074 30.0666 44.4777 31.4638L40.6596 35.1844C40.091 35.7368 39.831 36.5329 39.961 37.3127L40.8546 42.5605C41.1958 44.5264 39.1324 46.0211 37.3615 45.095L32.6499 42.6255C31.9513 42.2518 31.1064 42.2518 30.4078 42.6255L25.6962 45.095C23.9253 46.0211 21.8619 44.5264 22.2031 42.5605L23.0967 37.3127C23.2266 36.5329 22.9667 35.7368 22.3981 35.1844L18.58 31.4638C17.1503 30.0666 17.9464 27.6458 19.9123 27.3533L25.1763 26.5897C25.9561 26.476 26.6385 25.9886 26.9797 25.2737L29.3355 20.4971C30.2778 18.7099 32.8286 18.7099 33.7222 20.4971Z" fill="#EB9C26"/>
<path d="M40.5946 38.2227L41.1308 41.3258L39.4411 39.8636L40.5946 38.2227Z" fill="#EB9C26"/>
<path d="M42.658 32.0812C44.4346 32.0812 45.8749 30.4227 45.8749 28.3769C45.8749 26.3311 44.4346 24.6726 42.658 24.6726C40.8814 24.6726 39.4411 26.3311 39.4411 28.3769C39.4411 30.4227 40.8814 32.0812 42.658 32.0812Z" fill="#EB9C26"/>
<path d="M38.9752 45.2926C40.5263 44.9959 41.483 43.1835 41.1121 41.2446C40.7412 39.3057 39.1831 37.9744 37.6319 38.2712C36.0808 38.5679 35.1241 40.3803 35.495 42.3192C35.8659 44.2581 37.424 45.5893 38.9752 45.2926Z" fill="#EB9C26"/>
<path d="M22.528 38.2227L21.9919 41.3258L23.6816 39.8636L22.528 38.2227Z" fill="#EB9C26"/>
<path d="M27.6338 42.3188C28.0047 40.3799 27.048 38.5675 25.4969 38.2708C23.9457 37.974 22.3876 39.3053 22.0167 41.2442C21.6458 43.1831 22.6025 44.9954 24.1536 45.2922C25.7048 45.5889 27.2629 44.2577 27.6338 42.3188Z" fill="#EB9C26"/>
<path d="M20.4484 32.0812C22.2251 32.0812 23.6653 30.4227 23.6653 28.3769C23.6653 26.3311 22.2251 24.6726 20.4484 24.6726C18.6718 24.6726 17.2315 26.3311 17.2315 28.3769C17.2315 30.4227 18.6718 32.0812 20.4484 32.0812Z" fill="#EB9C26"/>
<path d="M33.7222 17.8489L36.078 22.6255C36.4354 23.3404 37.1016 23.8278 37.8814 23.9415L43.1454 24.7051C45.1113 24.9976 45.9074 27.4184 44.4777 28.8156L40.6596 32.5362C40.091 33.0886 39.831 33.8847 39.961 34.6645L40.8546 39.9123C41.1958 41.8782 39.1324 43.3729 37.3615 42.4468L32.6499 39.9773C31.9513 39.6036 31.1064 39.6036 30.4078 39.9773L25.6962 42.4468C23.9253 43.3729 21.8619 41.8782 22.2031 39.9123L23.0967 34.6645C23.2267 33.8847 22.9667 33.0886 22.3981 32.5362L18.58 28.8156C17.199 27.4184 17.9951 24.9813 19.961 24.7051L25.225 23.9415C26.0049 23.8278 26.6873 23.3404 27.0284 22.6255L29.4005 17.8489C30.2778 16.0618 32.8286 16.0618 33.7222 17.8489Z" fill="url(#paint0_linear_113_2877)"/>
<path d="M35.6393 24.0877C34.3558 24.1852 32.6174 24.4776 30.749 25.3387C26.3136 27.3858 24.2827 31.2039 23.6491 32.5686C23.2916 32.1462 22.918 31.6913 22.5118 31.2526C21.7807 30.4565 21.0658 29.7416 20.3672 29.108C21.7807 29.043 23.779 28.7668 25.9236 27.792C30.749 25.6312 32.9748 21.5369 33.6897 20.0909C34.0634 20.7246 34.4533 21.4069 34.827 22.1868C35.1194 22.8367 35.3956 23.4866 35.6393 24.0877Z" fill="#F5E89D"/>
<path d="M40.1885 31.7401C40.2859 31.8863 39.6686 32.2112 39.3436 32.9911C39.0024 33.7709 39.1974 34.4371 39.0349 34.4696C38.8562 34.5021 38.7425 33.7222 38.0926 32.9424C37.4102 32.13 36.5979 31.8538 36.6629 31.7401C36.7279 31.6101 37.5402 32.1463 38.6775 32.0488C39.5223 31.9838 40.091 31.5939 40.1885 31.7401Z" fill="#F5E89D"/>
<path d="M34.5345 30.9765C34.502 31.0415 34.3396 30.9928 32.8773 30.5703C32.1137 30.3591 31.87 30.2941 31.805 30.0829C31.7076 29.7905 31.9675 29.3518 32.2924 29.2706C32.5199 29.2218 32.7149 29.3681 33.1373 29.7255C34.1121 30.5053 34.5833 30.8953 34.5345 30.9765Z" fill="#F5E89D"/>
<path d="M23.9253 33.446C23.8278 33.4785 23.9253 33.8521 23.8765 34.6158C23.7953 35.8505 23.4216 36.4679 23.5678 36.5491C23.7303 36.6304 24.4614 35.948 24.5589 35.0707C24.6401 34.1933 24.0877 33.3972 23.9253 33.446Z" fill="#EB9C26"/>
</g>
</g>
<defs>
<filter id="filter0_i_113_2877" x="0" y="0" width="64" height="76" filterUnits="userSpaceOnUse" color-interpolation-filters="sRGB">
<feFlood flood-opacity="0" result="BackgroundImageFix"/>
<feBlend mode="normal" in="SourceGraphic" in2="BackgroundImageFix" result="shape"/>
<feColorMatrix in="SourceAlpha" type="matrix" values="0 0 0 0 0 0 0 0 0 0 0 0 0 0 0 0 0 0 127 0" result="hardAlpha"/>
<feOffset dy="12"/>
<feGaussianBlur stdDeviation="8"/>
<feComposite in2="hardAlpha" operator="arithmetic" k2="-1" k3="1"/>
<feColorMatrix type="matrix" values="0 0 0 0 0.648333 0 0 0 0 0.203144 0 0 0 0 0.203144 0 0 0 1 0"/>
<feBlend mode="normal" in2="shape" result="effect1_innerShadow_113_2877"/>
</filter>
<linearGradient id="paint0_linear_113_2877" x1="31.5575" y1="18.3537" x2="31.5575" y2="42.0066" gradientUnits="userSpaceOnUse">
<stop stop-color="#F5DD53"/>
<stop offset="1" stop-color="#F5AF25"/>
</linearGradient>
<clipPath id="clip0_113_2877">
<rect width="40" height="40" fill="white" transform="translate(12 12)"/>
</clipPath>
</defs>
</svg>
