<svg width="65" height="64" viewBox="0 0 65 64" fill="none" xmlns="http://www.w3.org/2000/svg">
<g id="Icon/Gold" clip-path="url(#clip0_113_4828)">
<circle id="Ellipse 1189" cx="34.5001" cy="33.6" r="30.4" fill="url(#paint0_radial_113_4828)"/>
<g id="Ellipse 1188">
<circle cx="32.5" cy="32" r="28.8" fill="url(#paint1_linear_113_4828)"/>
<circle cx="32.5" cy="32" r="28.8" fill="url(#paint2_radial_113_4828)" fill-opacity="0.5"/>
<circle cx="32.5" cy="32" r="28.8" fill="url(#paint3_linear_113_4828)"/>
</g>
<g id="Group 1597881716">
<g id="Group 1597881719">
<path id="Vector 821" d="M50.2755 35.2505H14.3151L11.3372 44.5H53.2082L50.2755 35.2505Z" fill="url(#paint4_linear_113_4828)"/>
<path id="Subtract" fill-rule="evenodd" clip-rule="evenodd" d="M41.6439 35.2505L38.8151 44.5L38.8152 44.5H11.3372L14.3151 35.2505H41.6439Z" fill="url(#paint5_linear_113_4828)"/>
</g>
<g id="Group 1597881720">
<path id="Vector 819" d="M25.8657 44.4549L22.9329 35.1602H14.315L11.292 44.4549H25.8657Z" fill="url(#paint6_linear_113_4828)"/>
<path id="Vector 820" d="M46.1243 23.5193L37.9576 20.0451L22.8425 34.9346L25.8655 44.4549L46.1243 23.5193Z" fill="url(#paint7_linear_113_4828)"/>
<path id="Vector 818" d="M38.0478 20L22.9778 35.2053H14.2246L29.3848 20H38.0478Z" fill="url(#paint8_linear_113_4828)"/>
</g>
</g>
<g id="Group 1597881718">
<circle id="Ellipse 1134" cx="16.5" cy="15.2" r="12" fill="url(#paint9_radial_113_4828)"/>
<path id="Star 407" d="M16.5 10.4C17.3228 12.6238 19.0762 14.3771 21.3 15.2C19.0762 16.0229 17.3228 17.7762 16.5 20C15.6771 17.7762 13.9237 16.0229 11.7 15.2C13.9237 14.3771 15.6771 12.6238 16.5 10.4Z" fill="#FBFFFF"/>
</g>
<g id="Group 1597881717">
<circle id="Ellipse 1189_2" cx="45.2999" cy="43.2" r="6.4" fill="url(#paint10_radial_113_4828)"/>
<path id="Star 408" d="M45.2999 40.7999C45.7113 41.9118 46.588 42.7885 47.6999 43.1999C46.588 43.6114 45.7113 44.488 45.2999 45.5999C44.8885 44.488 44.0118 43.6114 42.8999 43.1999C44.0118 42.7885 44.8885 41.9118 45.2999 40.7999Z" fill="#FBFFFF"/>
</g>
</g>
<defs>
<radialGradient id="paint0_radial_113_4828" cx="0" cy="0" r="1" gradientUnits="userSpaceOnUse" gradientTransform="translate(34.5001 33.6) rotate(90) scale(30.4)">
<stop offset="0.725" stop-color="#6F5514"/>
<stop offset="1" stop-color="#6F5514" stop-opacity="0"/>
</radialGradient>
<linearGradient id="paint1_linear_113_4828" x1="7.29995" y1="12" x2="59.8356" y2="52.0731" gradientUnits="userSpaceOnUse">
<stop stop-color="#FFEE96"/>
<stop offset="0.418064" stop-color="#D9BD2D"/>
<stop offset="0.895797" stop-color="#F9DF58"/>
</linearGradient>
<radialGradient id="paint2_radial_113_4828" cx="0" cy="0" r="1" gradientUnits="userSpaceOnUse" gradientTransform="translate(26.5 11.9999) rotate(67.3801) scale(26 17.8758)">
<stop stop-color="white"/>
<stop offset="1" stop-color="white" stop-opacity="0"/>
</radialGradient>
<linearGradient id="paint3_linear_113_4828" x1="52.1" y1="48.4" x2="17.4552" y2="14.3069" gradientUnits="userSpaceOnUse">
<stop stop-color="#FFE8C0" stop-opacity="0"/>
<stop offset="0.613338" stop-color="#FFE8C0"/>
<stop offset="1" stop-color="#FFE8C0" stop-opacity="0"/>
</linearGradient>
<linearGradient id="paint4_linear_113_4828" x1="26" y1="23" x2="23.0675" y2="32.2756" gradientUnits="userSpaceOnUse">
<stop offset="0.0942908" stop-color="#997B2E"/>
<stop offset="1" stop-color="#DDB349"/>
</linearGradient>
<linearGradient id="paint5_linear_113_4828" x1="22.5" y1="43" x2="26.7614" y2="51.1994" gradientUnits="userSpaceOnUse">
<stop offset="0.187519" stop-color="#997B2E"/>
<stop offset="1" stop-color="#DDB349"/>
</linearGradient>
<linearGradient id="paint6_linear_113_4828" x1="26" y1="38.5" x2="15.1491" y2="31.7377" gradientUnits="userSpaceOnUse">
<stop offset="0.0510203" stop-color="#997B2E"/>
<stop offset="1" stop-color="#DDB349"/>
</linearGradient>
<linearGradient id="paint7_linear_113_4828" x1="27.5716" y1="20.8143" x2="43.0454" y2="46.9188" gradientUnits="userSpaceOnUse">
<stop offset="0.194674" stop-color="#997B2E"/>
<stop offset="1" stop-color="#DDB349"/>
</linearGradient>
<linearGradient id="paint8_linear_113_4828" x1="55.5" y1="21.5" x2="33.6794" y2="11.4034" gradientUnits="userSpaceOnUse">
<stop offset="0.0510203" stop-color="#997B2E"/>
<stop offset="1" stop-color="#DDB349"/>
</linearGradient>
<radialGradient id="paint9_radial_113_4828" cx="0" cy="0" r="1" gradientUnits="userSpaceOnUse" gradientTransform="translate(16.5 15.2) rotate(90) scale(12)">
<stop stop-color="white"/>
<stop offset="1" stop-color="white" stop-opacity="0"/>
</radialGradient>
<radialGradient id="paint10_radial_113_4828" cx="0" cy="0" r="1" gradientUnits="userSpaceOnUse" gradientTransform="translate(45.2999 43.2) rotate(90) scale(6.4)">
<stop stop-color="white"/>
<stop offset="1" stop-color="white" stop-opacity="0"/>
</radialGradient>
<clipPath id="clip0_113_4828">
<rect width="64" height="64" fill="white" transform="translate(0.5)"/>
</clipPath>
</defs>
</svg>
