<svg width="15" height="18" viewBox="0 0 15 18" fill="none" xmlns="http://www.w3.org/2000/svg">
<g id="Contactless Indicator">
<path id="Vector" d="M0.185097 6.8C0.111276 6.70006 0.0578629 6.58655 0.0279089 6.46596C-0.00204514 6.34537 -0.0079538 6.22006 0.0105202 6.09718C0.0478302 5.84903 0.182191 5.62586 0.384045 5.47677C0.5859 5.32768 0.838712 5.26488 1.08687 5.30219C1.33502 5.3395 1.55819 5.47386 1.70728 5.67572C2.05692 6.14494 2.33018 6.66648 2.51695 7.22103C2.71113 7.79639 2.80959 8.3997 2.80844 9.00694C2.80909 9.61263 2.71063 10.2143 2.51695 10.7882C2.33018 11.3428 2.05692 11.8643 1.70728 12.3335C1.55819 12.5354 1.33502 12.6698 1.08687 12.7071C0.838712 12.7444 0.5859 12.6816 0.384045 12.5325C0.182191 12.3834 0.0478303 12.1602 0.0105203 11.9121C-0.0267898 11.6639 0.0360075 11.4111 0.185097 11.2093C0.416123 10.9018 0.597245 10.5599 0.721795 10.196C0.854222 9.81345 0.922993 9.41176 0.925369 9.00694C0.926959 8.60444 0.862886 8.20438 0.735675 7.82251C0.60774 7.45454 0.421875 7.10936 0.185097 6.8ZM3.42379 5.03723C4.16023 6.23002 4.54808 7.60513 4.54345 9.00694C4.54975 10.4062 4.16517 11.7795 3.43304 12.972C3.36773 13.0777 3.32387 13.1953 3.30399 13.318C3.2841 13.4406 3.28857 13.566 3.31714 13.687C3.34571 13.8079 3.39782 13.922 3.4705 14.0228C3.54318 14.1236 3.635 14.2091 3.74072 14.2744C3.84644 14.3398 3.96399 14.3836 4.08665 14.4035C4.20932 14.4234 4.33471 14.4189 4.45565 14.3903C4.57659 14.3618 4.69072 14.3097 4.79152 14.237C4.89232 14.1643 4.97782 14.0725 5.04313 13.9668C5.96052 12.4758 6.4414 10.7575 6.43114 9.00694C6.44201 7.25486 5.96112 5.53487 5.04313 4.04249C4.97782 3.93677 4.89232 3.84495 4.79152 3.77227C4.69072 3.6996 4.57659 3.64749 4.45565 3.61892C4.33471 3.59035 4.20932 3.58588 4.08665 3.60576C3.96399 3.62565 3.84644 3.6695 3.74072 3.73482C3.635 3.80013 3.54318 3.88563 3.4705 3.98643C3.39782 4.08723 3.34571 4.20136 3.31714 4.3223C3.28857 4.44324 3.2841 4.56863 3.30399 4.6913C3.32387 4.81396 3.36773 4.93151 3.43304 5.03723H3.42379ZM6.87068 3.25595C7.89299 5.00676 8.43113 6.99802 8.42988 9.02545C8.43053 11.0513 7.89241 13.0409 6.87068 14.7903C6.80779 14.8976 6.76665 15.0161 6.74959 15.1393C6.73253 15.2624 6.73989 15.3877 6.77125 15.508C6.80261 15.6283 6.85736 15.7412 6.93238 15.8404C7.00739 15.9395 7.10119 16.0229 7.20843 16.0858C7.31567 16.1487 7.43424 16.1898 7.55738 16.2069C7.68052 16.2239 7.80582 16.2166 7.92612 16.1852C8.04641 16.1539 8.15935 16.0991 8.25849 16.0241C8.35763 15.9491 8.44102 15.8553 8.5039 15.748C9.69838 13.711 10.3262 11.3915 10.3222 9.03007C10.3301 6.65999 9.70387 4.33094 8.50853 2.28435C8.37969 2.06715 8.16984 1.91004 7.92516 1.84757C7.68047 1.78509 7.42099 1.82238 7.2038 1.95122C6.98661 2.08007 6.82949 2.28991 6.76702 2.5346C6.70455 2.77928 6.74184 3.03876 6.87068 3.25595ZM10.3037 1.45154C11.6186 3.75883 12.3077 6.36976 12.3024 9.02545C12.3071 11.6796 11.6181 14.2889 10.3037 16.5947C10.2429 16.7026 10.204 16.8213 10.1891 16.9442C10.1743 17.0671 10.1838 17.1917 10.2171 17.3109C10.2504 17.4302 10.3068 17.5417 10.3832 17.6391C10.4596 17.7365 10.5544 17.8179 10.6623 17.8786C10.7701 17.9394 10.8889 17.9783 11.0118 17.9932C11.1346 18.008 11.2593 17.9986 11.3785 17.9653C11.4977 17.932 11.6092 17.8755 11.7066 17.7991C11.804 17.7227 11.8854 17.6279 11.9462 17.5201C13.4228 14.9277 14.1978 11.995 14.1947 9.01157C14.2016 6.02032 13.4265 3.07923 11.9462 0.479933C11.8235 0.262127 11.6193 0.101987 11.3785 0.0347426C11.1377 -0.0325022 10.8801 -0.00134343 10.6623 0.121364C10.4445 0.244072 10.2843 0.448277 10.2171 0.689057C10.1498 0.929836 10.181 1.18747 10.3037 1.40527" fill="#CB5050"/>
</g>
</svg>
