<svg width="59" height="10" viewBox="0 0 59 10" fill="none" xmlns="http://www.w3.org/2000/svg">
<path d="M4.044 5.928L6.24 9H4.452L3.156 7.176L1.848 9H0.06L2.256 5.94L0.156 3H1.944L3.156 4.692L4.368 3H6.144L4.044 5.928ZM10.3487 5.928L12.5447 9H10.7567L9.46069 7.176L8.15269 9H6.36469L8.56069 5.94L6.46069 3H8.24869L9.46069 4.692L10.6727 3H12.4487L10.3487 5.928ZM16.6534 5.928L18.8494 9H17.0614L15.7654 7.176L14.4574 9H12.6694L14.8654 5.94L12.7654 3H14.5534L15.7654 4.692L16.9774 3H18.7534L16.6534 5.928ZM22.9581 5.928L25.1541 9H23.3661L22.0701 7.176L20.7621 9H18.9741L21.1701 5.94L19.0701 3H20.8581L22.0701 4.692L23.2821 3H25.0581L22.9581 5.928ZM31.9988 9.168C30.9508 9.168 30.1268 8.772 29.5268 7.98C28.9348 7.172 28.6388 6.112 28.6388 4.8C28.6388 3.488 28.9348 2.432 29.5268 1.632C30.1268 0.832 30.9508 0.431999 31.9988 0.431999C33.0628 0.431999 33.8868 0.832 34.4708 1.632C35.0628 2.432 35.3588 3.488 35.3588 4.8C35.3588 6.112 35.0628 7.172 34.4708 7.98C33.8868 8.772 33.0628 9.168 31.9988 9.168ZM33.7148 4.8C33.7148 3.904 33.5668 3.22 33.2708 2.748C32.9828 2.276 32.5588 2.04 31.9988 2.04C31.4388 2.04 31.0148 2.276 30.7268 2.748C30.4388 3.22 30.2948 3.904 30.2948 4.8C30.2948 5.696 30.4388 6.38 30.7268 6.852C31.0148 7.316 31.4388 7.548 31.9988 7.548C32.5588 7.548 32.9828 7.312 33.2708 6.84C33.5668 6.368 33.7148 5.688 33.7148 4.8ZM39.5573 9.168C38.5093 9.168 37.6853 8.772 37.0853 7.98C36.4933 7.172 36.1973 6.112 36.1973 4.8C36.1973 3.488 36.4933 2.432 37.0853 1.632C37.6853 0.832 38.5093 0.431999 39.5573 0.431999C40.6213 0.431999 41.4453 0.832 42.0293 1.632C42.6213 2.432 42.9173 3.488 42.9173 4.8C42.9173 6.112 42.6213 7.172 42.0293 7.98C41.4453 8.772 40.6213 9.168 39.5573 9.168ZM41.2733 4.8C41.2733 3.904 41.1253 3.22 40.8293 2.748C40.5413 2.276 40.1173 2.04 39.5573 2.04C38.9973 2.04 38.5733 2.276 38.2853 2.748C37.9973 3.22 37.8533 3.904 37.8533 4.8C37.8533 5.696 37.9973 6.38 38.2853 6.852C38.5733 7.316 38.9973 7.548 39.5573 7.548C40.1173 7.548 40.5413 7.312 40.8293 6.84C41.1253 6.368 41.2733 5.688 41.2733 4.8ZM47.1159 9.168C46.0679 9.168 45.2439 8.772 44.6439 7.98C44.0519 7.172 43.7559 6.112 43.7559 4.8C43.7559 3.488 44.0519 2.432 44.6439 1.632C45.2439 0.832 46.0679 0.431999 47.1159 0.431999C48.1799 0.431999 49.0039 0.832 49.5879 1.632C50.1799 2.432 50.4759 3.488 50.4759 4.8C50.4759 6.112 50.1799 7.172 49.5879 7.98C49.0039 8.772 48.1799 9.168 47.1159 9.168ZM48.8319 4.8C48.8319 3.904 48.6839 3.22 48.3879 2.748C48.0999 2.276 47.6759 2.04 47.1159 2.04C46.5559 2.04 46.1319 2.276 45.8439 2.748C45.5559 3.22 45.4119 3.904 45.4119 4.8C45.4119 5.696 45.5559 6.38 45.8439 6.852C46.1319 7.316 46.5559 7.548 47.1159 7.548C47.6759 7.548 48.0999 7.312 48.3879 6.84C48.6839 6.368 48.8319 5.688 48.8319 4.8ZM54.6745 9.168C53.6265 9.168 52.8025 8.772 52.2025 7.98C51.6105 7.172 51.3145 6.112 51.3145 4.8C51.3145 3.488 51.6105 2.432 52.2025 1.632C52.8025 0.832 53.6265 0.431999 54.6745 0.431999C55.7385 0.431999 56.5625 0.832 57.1465 1.632C57.7385 2.432 58.0345 3.488 58.0345 4.8C58.0345 6.112 57.7385 7.172 57.1465 7.98C56.5625 8.772 55.7385 9.168 54.6745 9.168ZM56.3905 4.8C56.3905 3.904 56.2425 3.22 55.9465 2.748C55.6585 2.276 55.2345 2.04 54.6745 2.04C54.1145 2.04 53.6905 2.276 53.4025 2.748C53.1145 3.22 52.9705 3.904 52.9705 4.8C52.9705 5.696 53.1145 6.38 53.4025 6.852C53.6905 7.316 54.1145 7.548 54.6745 7.548C55.2345 7.548 55.6585 7.312 55.9465 6.84C56.2425 6.368 56.3905 5.688 56.3905 4.8Z" fill="#CB5050"/>
</svg>
