<svg width="81" height="80" viewBox="0 0 81 80" fill="none" xmlns="http://www.w3.org/2000/svg">
<g id="Icon/Lock" clip-path="url(#clip0_113_3924)">
<circle id="Ellipse 1189" cx="43" cy="42" r="38" fill="url(#paint0_radial_113_3924)"/>
<g id="Ellipse 1188">
<circle cx="40.5" cy="40" r="36" fill="url(#paint1_linear_113_3924)"/>
<circle cx="40.5" cy="40" r="36" fill="url(#paint2_radial_113_3924)" fill-opacity="0.5"/>
<circle cx="40.5" cy="40" r="36" fill="url(#paint3_linear_113_3924)"/>
</g>
<g id="Group 1597881716">
<path id="Union" fill-rule="evenodd" clip-rule="evenodd" d="M40.1 16C29.8177 16 22.8332 26.4458 26.762 35.948L27.6419 38.0763C25.6678 40.7372 24.5 44.0322 24.5 47.6C24.5 56.4366 31.6634 63.6 40.5 63.6C49.3366 63.6 56.5 56.4366 56.5 47.6C56.5 43.7273 55.1241 40.1759 52.8344 37.4081L53.4381 35.948C57.3669 26.4458 50.3823 16 40.1 16ZM47.6173 33.2663C49.5943 28.0422 45.7378 22.4 40.1 22.4C34.3771 22.4 30.4897 28.2139 32.6764 33.5026L32.7225 33.6142C35.0249 32.3311 37.6771 31.6 40.5 31.6C43.0568 31.6 45.4736 32.1998 47.6173 33.2663ZM41.8578 48.0184C43.2741 47.4796 44.279 46.1224 44.279 44.5333C44.279 42.4715 42.5871 40.8 40.5 40.8C38.4129 40.8 36.721 42.4715 36.721 44.5333C36.721 46.1224 37.7259 47.4796 39.1422 48.0184L37.9521 51.0729C37.2537 52.8657 38.576 54.8 40.5 54.8C42.424 54.8 43.7464 52.8657 43.0479 51.0729L41.8578 48.0184Z" fill="url(#paint4_linear_113_3924)"/>
</g>
<g id="Group 1597881718">
<circle id="Ellipse 1134" cx="20.5" cy="19" r="15" fill="url(#paint5_radial_113_3924)"/>
<path id="Star 407" d="M20.5 13C21.5286 15.7797 23.7203 17.9714 26.5 19C23.7203 20.0286 21.5286 22.2203 20.5 25C19.4714 22.2203 17.2797 20.0286 14.5 19C17.2797 17.9714 19.4714 15.7797 20.5 13Z" fill="#FBFFFF"/>
</g>
<g id="Group 1597881717">
<circle id="Ellipse 1189_2" cx="56.5" cy="54" r="8" fill="url(#paint6_radial_113_3924)"/>
<path id="Star 408" d="M56.5 51C57.0143 52.3899 58.1101 53.4857 59.5 54C58.1101 54.5143 57.0143 55.6101 56.5 57C55.9857 55.6101 54.8899 54.5143 53.5 54C54.8899 53.4857 55.9857 52.3899 56.5 51Z" fill="#FBFFFF"/>
</g>
</g>
<defs>
<radialGradient id="paint0_radial_113_3924" cx="0" cy="0" r="1" gradientUnits="userSpaceOnUse" gradientTransform="translate(43 42) rotate(90) scale(38)">
<stop offset="0.725" stop-color="#6F5514"/>
<stop offset="1" stop-color="#6F5514" stop-opacity="0"/>
</radialGradient>
<linearGradient id="paint1_linear_113_3924" x1="9" y1="15" x2="74.6695" y2="65.0914" gradientUnits="userSpaceOnUse">
<stop stop-color="#FFEE96"/>
<stop offset="0.418064" stop-color="#D9BD2D"/>
<stop offset="0.895797" stop-color="#F9DF58"/>
</linearGradient>
<radialGradient id="paint2_radial_113_3924" cx="0" cy="0" r="1" gradientUnits="userSpaceOnUse" gradientTransform="translate(33 15) rotate(67.3801) scale(32.5 22.3448)">
<stop stop-color="white"/>
<stop offset="1" stop-color="white" stop-opacity="0"/>
</radialGradient>
<linearGradient id="paint3_linear_113_3924" x1="65" y1="60.5" x2="21.694" y2="17.8837" gradientUnits="userSpaceOnUse">
<stop stop-color="#FFE8C0" stop-opacity="0"/>
<stop offset="0.613338" stop-color="#FFE8C0"/>
<stop offset="1" stop-color="#FFE8C0" stop-opacity="0"/>
</linearGradient>
<linearGradient id="paint4_linear_113_3924" x1="31" y1="17.5" x2="51.5" y2="58.5" gradientUnits="userSpaceOnUse">
<stop offset="0.0510203" stop-color="#997B2E"/>
<stop offset="1" stop-color="#DDB349"/>
</linearGradient>
<radialGradient id="paint5_radial_113_3924" cx="0" cy="0" r="1" gradientUnits="userSpaceOnUse" gradientTransform="translate(20.5 19) rotate(90) scale(15)">
<stop stop-color="white"/>
<stop offset="1" stop-color="white" stop-opacity="0"/>
</radialGradient>
<radialGradient id="paint6_radial_113_3924" cx="0" cy="0" r="1" gradientUnits="userSpaceOnUse" gradientTransform="translate(56.5 54) rotate(90) scale(8)">
<stop stop-color="white"/>
<stop offset="1" stop-color="white" stop-opacity="0"/>
</radialGradient>
<clipPath id="clip0_113_3924">
<rect width="80" height="80" fill="white" transform="translate(0.5)"/>
</clipPath>
</defs>
</svg>
