<svg width="24" height="24" viewBox="0 0 24 24" fill="none" xmlns="http://www.w3.org/2000/svg">
<g id="Group">
<g id="Group_2">
<path id="Vector" d="M9.60713 5.14155C9.97184 5.77313 9.75835 6.58262 9.12677 6.94734C8.49519 7.31205 7.6857 7.09856 7.32099 6.46698C6.95627 5.8354 7.16976 5.02591 7.80134 4.6612C8.43292 4.29648 9.24241 4.50998 9.60713 5.14155Z" fill="url(#paint0_linear_113_2796)"/>
<path id="Vector_2" d="M6.39993 0.413041C6.16887 0.0178169 5.65812 -0.115951 5.2629 0.109022C4.86767 0.340076 4.73391 0.844747 4.96496 1.23997C4.9832 1.27037 5.00144 1.29469 5.01968 1.31902L7.3059 4.74834C7.46399 5.02196 7.81057 5.11316 8.08419 4.95508C8.35781 4.79699 8.44901 4.4504 8.29092 4.17679L6.44249 0.498166C6.42425 0.467764 6.41209 0.437362 6.39993 0.413041Z" fill="url(#paint1_linear_113_2796)"/>
<path id="Vector_3" d="M16.7947 9.33131C15.8963 8.51292 15.1135 7.70343 14.4463 6.93842C13.5923 5.96882 12.3648 5.38171 11.0749 5.38171C11.0304 5.38171 10.986 5.38171 10.9504 5.38171C9.84734 5.4084 9.01116 5.78201 8.59308 6.01329C8.18388 6.26237 7.44556 6.80499 6.87625 7.74791C6.84956 7.78349 6.83177 7.81908 6.81398 7.85466C6.17351 8.97549 6.07566 10.3276 6.49374 11.5552C6.82288 12.5159 7.14311 13.5922 7.40108 14.7842C7.79248 16.5544 7.97039 18.1556 8.04156 19.5255L14.9978 17.0348L20.6109 12.2312C19.4456 11.4929 18.1379 10.5411 16.7947 9.33131Z" fill="url(#paint2_linear_113_2796)"/>
<path id="Vector_4" d="M13.0407 14.0014C12.9607 13.8413 11.9555 14.5885 10.9325 14.3039C9.32243 13.8591 8.77981 11.1727 8.6019 11.235C8.44178 11.2883 9.49144 13.2898 9.09115 15.6293C8.88655 16.848 8.36172 17.702 8.55742 17.8176C8.74422 17.9332 9.26906 17.1149 10.3899 16.0919C11.8399 14.7754 13.1297 14.1705 13.0407 14.0014Z" fill="#F5E89D"/>
<path id="Vector_5" d="M16.5722 9.95404C16.4299 10.0519 16.5989 10.6924 16.9636 11.1638C17.7998 12.2491 19.5344 12.258 19.6056 12.0623C19.6412 11.9466 19.1341 11.8221 18.0934 11.0749C17.106 10.3543 16.7146 9.85619 16.5722 9.95404Z" fill="#EB9C26"/>
<path id="Vector_6" d="M8.06821 9.74053C8.17496 9.69605 7.84583 9.01999 7.8903 8.2283C7.95257 7.12526 8.70869 6.41362 8.58415 6.31577C8.4952 6.2446 8.00595 6.636 7.60565 7.10746C6.7161 8.14824 6.38697 9.35802 6.5204 9.42918C6.60936 9.48256 6.83174 8.94883 7.20535 8.95772C7.66792 8.96662 7.94368 9.7939 8.06821 9.74053Z" fill="#F5E89D"/>
<path id="Vector_7" d="M21.1802 12.3202C21.9363 13.6189 19.5523 16.421 15.8607 18.5648C12.169 20.7086 8.55748 21.3936 7.80137 20.0859C7.04525 18.7872 9.42924 15.9851 13.1209 13.8413C16.8214 11.6975 20.4241 11.0126 21.1802 12.3202Z" fill="url(#paint3_linear_113_2796)"/>
<path id="Vector_8" d="M18.1913 15.8162C17.542 16.341 16.6613 16.9548 15.6383 17.5597C15.5583 17.6131 15.4693 17.6575 15.3804 17.7109C12.9875 19.0986 10.8437 19.8903 10.6035 19.4722C10.5145 19.3299 10.6746 19.0541 11.0216 18.6983C11.662 18.04 12.943 17.0971 14.4997 16.1987C14.562 16.1631 14.6331 16.1275 14.6954 16.083C15.7718 15.4692 16.7947 14.98 17.5953 14.6775C17.9067 14.5619 18.1824 14.4729 18.4226 14.4107C18.8852 14.295 19.1965 14.295 19.2766 14.4374C19.4011 14.6598 18.9741 15.1757 18.1913 15.8162Z" fill="#EB9C26"/>
<path id="Vector_9" d="M18.4137 14.4106C18.2358 14.5886 18.0134 14.7932 17.7465 15.0155C17.0971 15.5404 16.2165 16.1542 15.1935 16.7591C15.1135 16.8124 15.0245 16.8569 14.9355 16.9103C13.361 17.8265 11.9022 18.4759 11.0126 18.6983C11.6531 18.04 12.9341 17.0971 14.4908 16.1986C14.553 16.1631 14.6242 16.1275 14.6865 16.083C15.7628 15.4692 16.7858 14.98 17.5864 14.6775C17.8977 14.5619 18.1824 14.4729 18.4137 14.4106Z" fill="#99540B"/>
<path id="Vector_10" d="M17.96 15.1312C18.0845 15.3536 18.1646 15.5848 18.1824 15.825C18.2535 16.4922 17.9422 17.1771 17.3195 17.533C16.7769 17.8443 16.1453 17.8443 15.6294 17.5685C15.3447 17.4173 15.0957 17.1949 14.9177 16.8925C14.7665 16.6434 14.6954 16.3676 14.6865 16.0919C15.7628 15.4781 16.7858 14.9888 17.5864 14.6864C17.7376 14.802 17.8621 14.9533 17.96 15.1312Z" fill="#99540B"/>
<path id="Vector_11" d="M11.8132 15.0956C11.8666 15.1668 11.1105 15.5582 11.066 16.2342C11.0304 16.759 11.4396 17.1327 11.324 17.2483C11.1995 17.3639 10.8081 16.9014 10.2121 16.9014C9.60717 16.9014 9.21577 17.3728 9.16239 17.3017C9.10013 17.2305 9.5538 16.7146 10.1676 16.1808C10.9949 15.4603 11.7688 15.0333 11.8132 15.0956Z" fill="#F5E89D"/>
<path id="Vector_12" d="M7.86362 4.79462C7.90809 4.83021 7.55228 5.16823 7.65902 5.51516C7.74798 5.8176 8.13048 5.95104 8.10379 6.00441C8.07711 6.05778 7.6946 5.8176 7.51669 5.95104C7.38326 6.05778 7.45442 6.31575 7.40105 6.32465C7.34768 6.33354 7.18756 6.04889 7.20535 5.73755C7.23204 5.16823 7.81024 4.75015 7.86362 4.79462Z" fill="#F5E89D"/>
<path id="Vector_13" d="M17.9422 16.2787C18.0845 16.4299 17.8888 16.8925 17.6308 17.1682C17.0615 17.7642 16.0741 17.613 16.0652 17.5418C16.0563 17.4796 16.7679 17.4707 16.9992 16.9992C17.0882 16.8124 17.0259 16.7057 17.1505 16.5367C17.3373 16.252 17.7998 16.1364 17.9422 16.2787Z" fill="#EB9C26"/>
<path id="Vector_14" d="M11.4663 5.87992C11.3506 6.08451 12.6494 6.58266 12.9073 7.72128C13.1564 8.82432 12.2668 9.77613 12.5426 9.98963C12.765 10.1586 13.2542 9.48258 14.2594 9.30467C15.2913 9.11787 16.0207 9.60712 16.1275 9.40252C16.2164 9.23351 15.6827 8.87769 14.6775 7.8725C13.8058 7.00075 13.7613 6.81394 13.2365 6.46702C12.4537 5.95108 11.5552 5.7198 11.4663 5.87992Z" fill="#EB9C26"/>
<path id="Vector_15" d="M16.6257 12.7205C16.679 12.8273 15.9585 13.3521 15.2202 13.7257C14.2595 14.2061 13.1831 14.4641 13.1297 14.3395C13.0764 14.1972 14.215 13.5923 15.0245 13.2365C15.5226 13.023 16.5634 12.6049 16.6257 12.7205Z" fill="#F5E89D"/>
</g>
</g>
<defs>
<linearGradient id="paint0_linear_113_2796" x1="9.42123" y1="5.28203" x2="6.44751" y2="6.91604" gradientUnits="userSpaceOnUse">
<stop stop-color="#F5DD53"/>
<stop offset="1" stop-color="#F5AF25"/>
</linearGradient>
<linearGradient id="paint1_linear_113_2796" x1="7.40113" y1="2.1325" x2="5.36849" y2="3.24941" gradientUnits="userSpaceOnUse">
<stop stop-color="#F5DD53"/>
<stop offset="1" stop-color="#F5AF25"/>
</linearGradient>
<linearGradient id="paint2_linear_113_2796" x1="3.57016" y1="16.0938" x2="13.6423" y2="10.492" gradientUnits="userSpaceOnUse">
<stop stop-color="#F5DD53"/>
<stop offset="1" stop-color="#F5AF25"/>
</linearGradient>
<linearGradient id="paint3_linear_113_2796" x1="13.2529" y1="14.0582" x2="15.4167" y2="17.783" gradientUnits="userSpaceOnUse">
<stop stop-color="#F5DD53"/>
<stop offset="1" stop-color="#F5AF25"/>
</linearGradient>
</defs>
</svg>
