<svg width="24" height="24" viewBox="0 0 24 24" fill="none" xmlns="http://www.w3.org/2000/svg">
<g id="Group">
<g id="Group_2">
<g id="Group_3">
<path id="Vector" d="M20.7589 13.1933C20.5387 13.1052 20.2657 13.0172 19.9398 12.9731C19.7372 12.9379 19.5523 12.9291 19.3849 12.9291C19.3585 13.343 19.3233 13.757 19.2969 14.1709L20.7589 13.1933Z" fill="#EB9C26"/>
<path id="Vector_2" d="M3.43488 13.1933C3.65506 13.1052 3.92809 13.0172 4.25396 12.9731C4.45653 12.9379 4.64148 12.9291 4.80882 12.9291C4.83524 13.343 4.87047 13.757 4.89689 14.1709L3.43488 13.1933Z" fill="#EB9C26"/>
</g>
<path id="Vector_3" d="M18.8653 7.33647C18.2752 7.69757 17.8084 8.0851 17.4297 8.43739C17.4737 8.94822 17.5178 9.45904 17.5618 9.96987L16.6282 10.6392L15.5625 10.0403C15.6418 9.48546 15.7211 8.9306 15.7915 8.37574C15.3688 7.88253 14.8315 7.32767 14.1622 6.7728C13.4223 6.1651 12.7089 5.70712 12.0924 5.37244C11.4847 5.70712 10.7713 6.1651 10.0227 6.7728C9.35335 7.32767 8.8161 7.88253 8.39335 8.37574C8.47262 8.9306 8.55188 9.48546 8.62234 10.0403L7.55665 10.6392L6.62308 9.96987C6.66711 9.45904 6.71115 8.94822 6.75519 8.43739C6.38528 8.0939 5.90968 7.70638 5.31959 7.33647C4.46528 6.79923 3.655 6.49097 3.02087 6.30601L3.95445 11.7401L4.35078 17.0334L12.0836 18.099L19.8165 17.0334L20.2128 11.7401L21.1464 6.30601C20.5299 6.49097 19.7196 6.79923 18.8653 7.33647Z" fill="url(#paint0_linear_113_2674)"/>
<path id="Vector_4" d="M20.7589 13.1934C19.6052 13.4576 18.2136 13.7218 16.6283 13.9068C14.3296 14.1798 11.2118 14.3295 7.56552 13.9068C5.9802 13.7218 4.58864 13.4576 3.43488 13.1934L3.08259 16.6458C3.05616 16.8836 3.2147 17.1038 3.44369 17.1567C4.61506 17.4385 5.9802 17.7115 7.53029 17.8965C11.2382 18.3545 14.4 18.1783 16.6811 17.8965C18.2224 17.7027 19.5963 17.4385 20.7677 17.1567C20.9967 17.1038 21.1552 16.8836 21.1288 16.6458L20.7589 13.1934Z" fill="url(#paint1_linear_113_2674)"/>
<path id="Vector_5" d="M12.1013 12.6649C12.8309 12.6649 13.4224 11.8407 13.4224 10.8241C13.4224 9.80752 12.8309 8.9834 12.1013 8.9834C11.3716 8.9834 10.7802 9.80752 10.7802 10.8241C10.7802 11.8407 11.3716 12.6649 12.1013 12.6649Z" fill="#EB9C26"/>
<path id="Vector_6" d="M12.1013 12.1276C12.9525 12.1276 13.6426 11.3035 13.6426 10.2869C13.6426 9.27029 12.9525 8.44617 12.1013 8.44617C11.2501 8.44617 10.56 9.27029 10.56 10.2869C10.56 11.3035 11.2501 12.1276 12.1013 12.1276Z" fill="#EB9C26"/>
<path id="Vector_7" d="M12.1013 12.3919C12.8309 12.3919 13.4224 11.5678 13.4224 10.5512C13.4224 9.53457 12.8309 8.71045 12.1013 8.71045C11.3716 8.71045 10.7802 9.53457 10.7802 10.5512C10.7802 11.5678 11.3716 12.3919 12.1013 12.3919Z" fill="url(#paint2_linear_113_2674)"/>
<path id="Vector_8" d="M10.1284 14.3295C10.1284 14.3648 9.78492 14.3295 9.47666 14.5321C8.94822 14.8844 8.93941 15.6947 8.82492 15.6859C8.72804 15.677 8.87776 15.0429 8.52547 14.6026C8.23482 14.2415 7.75923 14.2062 7.77684 14.1534C7.79446 14.1005 8.27005 14.215 8.9306 14.2679C9.61758 14.3207 10.1284 14.2855 10.1284 14.3295Z" fill="#F5E89D"/>
<path id="Vector_9" d="M8.72808 16.4081C8.82496 16.4257 8.68404 16.9277 8.94826 17.3064C9.25652 17.7556 9.90826 17.7468 9.89945 17.826C9.89064 17.8877 9.39743 17.8877 8.61358 17.8084C7.70642 17.7204 7.02826 17.5882 7.02826 17.5266C7.03707 17.4561 7.77688 17.6675 8.24367 17.2624C8.62239 16.9365 8.63119 16.3993 8.72808 16.4081Z" fill="#F5E89D"/>
<g id="Group_4">
<path id="Vector_10" d="M12.1013 11.7313C12.5683 11.7313 12.9468 11.203 12.9468 10.5512C12.9468 9.89936 12.5683 9.37097 12.1013 9.37097C11.6343 9.37097 11.2558 9.89936 11.2558 10.5512C11.2558 11.203 11.6343 11.7313 12.1013 11.7313Z" fill="url(#paint3_linear_113_2674)"/>
<path id="Vector_11" d="M12.6738 9.97868C12.2774 10.3398 11.8811 10.7097 11.4848 11.0708C11.4407 10.9475 11.291 10.5247 11.4848 10.0932C11.5464 9.96106 11.7226 9.55593 12.0749 9.54712C12.3127 9.54712 12.5416 9.71446 12.6738 9.97868Z" fill="#F5E89D"/>
<path id="Vector_12" d="M11.749 9.70562C11.7842 9.72324 11.7049 9.86416 11.7578 10.0227C11.8194 10.2076 12.0132 10.2869 11.9956 10.3221C11.978 10.3574 11.7842 10.2253 11.6169 10.2957C11.476 10.3574 11.4495 10.5159 11.4231 10.5071C11.3879 10.4983 11.4055 10.2693 11.5024 10.0403C11.5728 9.85535 11.7138 9.68801 11.749 9.70562Z" fill="white"/>
<path id="Vector_13" d="M12.392 10.3486C12.4184 10.3926 12.3743 10.5159 12.2863 10.5248C12.207 10.5336 12.1365 10.4279 12.1542 10.375C12.1806 10.3046 12.3567 10.287 12.392 10.3486Z" fill="white"/>
<path id="Vector_14" d="M12.753 10.921C12.7442 11.0091 12.7002 11.2029 12.5329 11.379C12.4624 11.4583 12.3215 11.5992 12.1189 11.608C11.8283 11.6168 11.6521 11.3174 11.6433 11.2997C12.0132 11.1676 12.3831 11.0443 12.753 10.921Z" fill="#EB9C26"/>
</g>
<g id="Group_5">
<path id="Vector_15" d="M13.3079 10.5071C13.4488 10.7096 13.6513 10.9386 13.942 11.1236C15.0077 11.7753 16.2935 11.1676 16.4257 11.0972C16.6899 11.2997 16.9541 11.5111 17.2271 11.7137C16.8924 11.9163 16.5578 12.1276 16.2231 12.3302C16.1262 12.2069 15.7123 11.7225 14.9901 11.5992C14.0741 11.4495 13.4135 12.0219 13.3255 12.1012C13.1405 12.0219 12.9644 11.9515 12.7794 11.8722C12.9644 11.423 13.1317 10.9651 13.3079 10.5071Z" fill="url(#paint4_linear_113_2674)"/>
<path id="Vector_16" d="M10.8859 10.5071C10.745 10.7096 10.5424 10.9386 10.2518 11.1236C9.18606 11.7753 7.90019 11.1676 7.76808 11.0972C7.50386 11.2997 7.23964 11.5111 6.96661 11.7137C7.30129 11.9163 7.63597 12.1276 7.97065 12.3302C8.06753 12.2069 8.48148 11.7225 9.20368 11.5992C10.1196 11.4495 10.7802 12.0219 10.8683 12.1012C11.0532 12.0219 11.2294 11.9515 11.4143 11.8722C11.2382 11.423 11.062 10.9651 10.8859 10.5071Z" fill="url(#paint5_linear_113_2674)"/>
</g>
<path id="Vector_17" d="M9.89947 13.8979C9.91708 13.8186 9.60883 13.7834 9.37984 13.5016C9.03635 13.07 9.19488 12.4447 9.10681 12.4359C9.01874 12.4271 9.02754 13.0788 8.58718 13.4399C8.27892 13.6953 7.90901 13.6689 7.91782 13.7482C7.91782 13.7922 8.02351 13.8274 8.8602 13.8979C9.78497 13.9684 9.89066 13.9419 9.89947 13.8979Z" fill="#EB9C26"/>
<path id="Vector_18" d="M12.0925 5.68945C12.0925 6.44688 12.0925 7.21312 12.0925 7.97055C11.8547 8.04982 11.3879 8.24358 10.9651 8.68395C10.6481 9.02743 10.4807 9.37092 10.4015 9.59991C9.82898 9.2212 9.2565 8.84248 8.68402 8.46377C9.07154 8.04101 9.53833 7.58303 10.0844 7.12505C10.789 6.52615 11.4759 6.05055 12.0925 5.68945Z" fill="#F5E89D"/>
<path id="Vector_19" d="M6.47338 8.48138C6.19155 8.7368 5.90971 9.00102 5.62788 9.25643C5.37247 9.0979 5.03779 8.92175 4.62384 8.78083C4.23632 8.63991 3.88402 8.56946 3.60219 8.53423C3.47889 7.88248 3.35558 7.23074 3.24109 6.57019C3.68146 6.71992 4.18347 6.93129 4.72072 7.23074C5.46054 7.63588 6.04182 8.08505 6.47338 8.48138Z" fill="#F5E89D"/>
<path id="Vector_20" d="M20.6268 8.02351C20.3274 8.08516 19.9487 8.19084 19.5347 8.38461C19.0591 8.6136 18.7068 8.87782 18.4602 9.08919C18.196 8.88662 17.9318 8.67525 17.6588 8.47268C17.967 8.19965 18.3281 7.90901 18.7509 7.62718C19.5347 7.10754 20.2833 6.79048 20.891 6.5791C20.8118 7.06351 20.7237 7.54791 20.6268 8.02351Z" fill="#F5E89D"/>
<path id="Vector_21" d="M7.2484 14.1093C6.8961 14.1973 6.37647 14.2854 5.76876 14.1797C5.10821 14.0652 4.53574 13.7482 4.56216 13.6777C4.57977 13.6337 4.87922 13.7041 5.75115 13.8626C6.37647 13.9683 6.8961 14.0564 7.2484 14.1093Z" fill="#F5E89D"/>
<path id="Vector_22" d="M6.28845 17.4121C6.26203 17.5002 5.40772 17.3329 5.09946 17.2712C4.76478 17.2095 4.08661 17.0774 4.09542 16.9982C4.10423 16.9277 4.61505 16.8925 5.11707 16.9717C5.7512 17.0774 6.30606 17.3417 6.28845 17.4121Z" fill="#F5E89D"/>
<path id="Vector_23" d="M18.2576 14.5056C17.8613 15.0781 17.9582 15.7474 17.9846 15.9676C18.0286 16.2759 18.0991 16.7867 18.469 17.0333C18.8213 17.2623 19.2528 17.1302 19.2617 17.183C19.2705 17.2447 18.6539 17.4032 17.7732 17.5441C17.5266 17.5882 16.2143 17.8084 16.1967 17.6939C16.1791 17.6234 16.7692 17.597 17.1655 17.1742C17.7556 16.5577 17.7556 15.2807 17.1655 14.7082C16.7339 14.2942 16.091 14.3559 16.0998 14.2502C16.1086 14.1445 16.7516 14.1885 17.6763 14.0388C18.513 13.8979 19.0679 13.6777 19.1031 13.7658C19.1472 13.8539 18.6099 13.9948 18.2576 14.5056Z" fill="#EB9C26"/>
</g>
</g>
<defs>
<linearGradient id="paint0_linear_113_2674" x1="12.0984" y1="3.85206" x2="12.0984" y2="10.6915" gradientUnits="userSpaceOnUse">
<stop stop-color="#F5DD53"/>
<stop offset="1" stop-color="#F5AF25"/>
</linearGradient>
<linearGradient id="paint1_linear_113_2674" x1="12.0984" y1="18.7819" x2="12.0984" y2="13.1272" gradientUnits="userSpaceOnUse">
<stop stop-color="#F5DD53"/>
<stop offset="1" stop-color="#F5AF25"/>
</linearGradient>
<linearGradient id="paint2_linear_113_2674" x1="12.0984" y1="12.672" x2="12.0984" y2="8.75029" gradientUnits="userSpaceOnUse">
<stop stop-color="#F5DD53"/>
<stop offset="1" stop-color="#F5AF25"/>
</linearGradient>
<linearGradient id="paint3_linear_113_2674" x1="11.2488" y1="10.5525" x2="12.948" y2="10.5525" gradientUnits="userSpaceOnUse">
<stop stop-color="#F5DD53"/>
<stop offset="1" stop-color="#F5AF25"/>
</linearGradient>
<linearGradient id="paint4_linear_113_2674" x1="15.0087" y1="12.672" x2="15.0087" y2="8.75021" gradientUnits="userSpaceOnUse">
<stop stop-color="#F5DD53"/>
<stop offset="1" stop-color="#F5AF25"/>
</linearGradient>
<linearGradient id="paint5_linear_113_2674" x1="9.18812" y1="12.672" x2="9.18812" y2="8.75021" gradientUnits="userSpaceOnUse">
<stop stop-color="#F5DD53"/>
<stop offset="1" stop-color="#F5AF25"/>
</linearGradient>
</defs>
</svg>
