<svg width="24" height="24" viewBox="0 0 24 24" fill="none" xmlns="http://www.w3.org/2000/svg">
<g id="Group">
<g id="Group_2">
<g id="Group_3">
<path id="Vector" d="M16.9033 14.7587C17.0885 15.2168 17.3615 15.831 17.7026 16.5621C18.541 18.3265 18.9504 18.8626 18.7457 19.1648C18.6482 19.3111 18.2388 19.623 16.065 18.8042C15.9187 19.0771 15.7238 19.4475 15.4606 19.8862C14.9732 20.7148 14.8854 20.783 14.7782 20.8025C14.5832 20.8415 14.2128 20.744 13.2185 19.1648C12.8091 18.5215 12.2827 17.5954 11.7758 16.4061C12.4971 16.2501 13.2575 16.0552 14.0568 15.8017C15.0999 15.48 16.0552 15.1291 16.9033 14.7587Z" fill="#EB9C26"/>
<path id="Vector_2" d="M7.25263 14.7587C7.06741 15.2168 6.79446 15.831 6.45328 16.5621C5.61494 18.3265 5.20551 18.8626 5.41022 19.1648C5.50771 19.3111 5.91713 19.623 8.09097 18.8042C8.23719 19.0771 8.43216 19.4475 8.69536 19.8862C9.18277 20.7148 9.2705 20.783 9.37773 20.8025C9.57269 20.8415 9.94312 20.744 10.9374 19.1648C11.3469 18.5215 11.8733 17.5954 12.3802 16.4061C11.6588 16.2501 10.8984 16.0552 10.0991 15.8017C9.04629 15.48 8.10072 15.1291 7.25263 14.7587Z" fill="#EB9C26"/>
</g>
<path id="Vector_3" opacity="0.4" d="M16.7181 15.1194C16.7669 15.3826 16.4842 15.4995 16.2405 16.3964C15.9773 17.3809 16.143 17.8683 15.8408 18.0341C15.5386 18.1998 15.1487 17.8196 14.4371 17.4687C13.5012 17.0105 12.4874 16.835 11.7563 16.8643C10.0699 16.9325 9.24129 18.151 8.58817 17.7026C8.37371 17.5564 8.44194 17.4102 8.11051 16.7375C7.53536 15.597 7.03821 15.4313 7.06745 15.1388C7.22342 13.9398 16.4452 13.6766 16.7181 15.1194Z" fill="#78335B"/>
<g id="Group_4">
<path id="Vector_4" d="M19.2526 10.0406C19.2526 11.035 19.0479 11.9708 18.6872 12.8286C18.385 13.5305 17.9854 14.1739 17.4882 14.749C16.991 15.3144 16.4061 15.8116 15.7628 16.2015C14.6807 16.8449 13.4232 17.225 12.0682 17.225C8.1007 17.225 4.89355 14.0081 4.89355 10.0504C4.89355 6.58004 7.35984 3.68483 10.6352 3.01221C10.7717 2.98296 10.9082 2.96347 11.0447 2.94397C11.3761 2.89523 11.7173 2.87573 12.0682 2.87573C12.0975 2.87573 12.1267 2.87573 12.1559 2.87573C12.3607 2.87573 12.5654 2.88548 12.7603 2.90498C13.3745 2.96347 13.9594 3.09994 14.515 3.30465C15.753 3.75307 16.8253 4.53292 17.6442 5.53698C18.5312 6.63853 19.1064 8.00327 19.2234 9.49474C19.2526 9.66046 19.2526 9.84568 19.2526 10.0406Z" fill="#EB9C26"/>
<path id="Vector_5" d="M19.2526 9.61168C19.2526 10.606 19.0479 11.5418 18.6872 12.3997C18.385 13.1015 17.9854 13.7449 17.4882 14.3201C16.991 14.8854 16.4061 15.3826 15.7628 15.7725C14.6807 16.4159 13.4232 16.7961 12.0682 16.7961C8.1007 16.7961 4.89355 13.5792 4.89355 9.62143C4.89355 6.15108 7.35984 3.25588 10.6352 2.58325C10.7717 2.55401 10.9082 2.53451 11.0447 2.51501C11.3761 2.46627 11.7173 2.44678 12.0682 2.44678C12.0975 2.44678 12.1267 2.44678 12.1559 2.44678C12.3607 2.44678 12.5654 2.45653 12.7603 2.47602C13.3745 2.53451 13.9594 2.67099 14.515 2.8757C15.753 3.32411 16.8253 4.10397 17.6442 5.10803C18.5312 6.20957 19.1064 7.57432 19.2234 9.06579C19.2526 9.23151 19.2526 9.41672 19.2526 9.61168Z" fill="url(#paint0_linear_113_2816)"/>
<path id="Vector_6" d="M11.2493 5.53693C11.4053 4.55237 11.5808 3.39233 11.0544 2.50525C11.3858 2.45651 11.727 2.43701 12.0779 2.43701C12.1072 2.43701 12.1364 2.43701 12.1657 2.43701C11.61 3.15838 11.3468 4.25017 11.649 5.26398C11.9025 6.13157 12.4679 6.61898 12.6921 6.7847C12.0779 6.92117 11.4638 7.05765 10.8497 7.19412C11.0739 6.5215 11.1811 5.94635 11.2493 5.53693Z" fill="#EB9C26"/>
<path id="Vector_7" d="M17.4981 14.3103C17.0009 14.8757 16.416 15.3729 15.7727 15.7628C15.9481 15.4508 16.1236 15.0414 16.0554 14.5638C15.9676 13.9106 15.4705 13.4622 15.5387 13.4037C15.6264 13.3355 16.1138 14.1738 16.9424 14.32C17.1276 14.359 17.3226 14.3493 17.4981 14.3103Z" fill="#EB9C26"/>
<path id="Vector_8" d="M11.4833 12.6434C11.4346 12.8188 10.6547 12.4874 9.79689 12.8481C9.25099 13.082 8.93905 13.4817 8.87081 13.4135C8.80258 13.355 9.11452 13.043 9.28024 12.5264C9.55318 11.6783 9.212 11.0057 9.39721 10.9277C9.55319 10.8692 9.72865 11.2591 10.3135 11.766C10.9959 12.3412 11.5321 12.4971 11.4833 12.6434Z" fill="#F5E89D"/>
<path id="Vector_9" d="M19.2527 9.61168C19.2527 10.606 19.048 11.5418 18.6873 12.3997C18.6288 11.3663 19.3015 10.8302 19.0383 10.3623C18.853 10.0406 18.3949 10.0308 18.4046 9.84563C18.4144 9.70916 18.6678 9.66042 18.8433 9.56293C19.0285 9.46545 19.1455 9.28024 19.2235 9.05603C19.2527 9.2315 19.2527 9.41671 19.2527 9.61168Z" fill="#EB9C26"/>
<path id="Vector_10" d="M17.654 5.08855C17.615 5.06905 17.576 5.05931 17.5468 5.03981C17.0984 4.87409 16.65 4.92283 16.3185 4.5329C16.2016 4.38668 16.2308 4.34769 16.0456 4.08449C15.8116 3.7433 15.5874 3.41186 15.295 3.36312C14.8173 3.28514 14.3494 4.0065 14.2714 3.93827C14.2129 3.88953 14.4956 3.61658 14.5444 3.18766C14.5541 3.06093 14.5541 2.96345 14.5346 2.86597C15.7629 3.30463 16.8449 4.08449 17.654 5.08855Z" fill="#EB9C26"/>
<path id="Vector_11" d="M7.9643 14.4468C8.19825 14.6807 8.19825 15.0804 8.05203 15.1681C7.81808 15.3144 7.02847 14.6515 7.11621 14.4175C7.18444 14.2518 7.6816 14.1543 7.9643 14.4468Z" fill="#EB9C26"/>
<path id="Vector_12" d="M16.8937 5.35171C16.9716 5.11776 16.65 4.59136 16.1723 4.63035C15.6946 4.66934 15.4607 5.22499 15.5679 5.43945C15.7336 5.76114 16.7864 5.6929 16.8937 5.35171Z" fill="#EB9C26"/>
<path id="Vector_13" d="M10.3233 6.43376C10.3525 6.5215 9.7676 6.64822 9.29969 7.15513C8.76354 7.73027 8.72455 8.44189 8.60757 8.41264C8.50034 8.39315 8.64656 7.87649 8.43211 7.21362C8.23714 6.60923 7.88621 6.33628 7.98369 6.2193C8.08117 6.10233 8.43211 6.40452 9.06574 6.49225C9.7676 6.58973 10.2843 6.34603 10.3233 6.43376Z" fill="#F5E89D"/>
<path id="Vector_14" d="M7.3111 5.78068C7.17463 5.9659 6.63848 5.88791 6.56049 5.63446C6.502 5.42975 6.74571 5.10806 6.97966 5.12756C7.26236 5.1373 7.44758 5.60522 7.3111 5.78068Z" fill="#F5E89D"/>
<path id="Vector_15" d="M15.3534 9.97241C15.3534 11.7758 13.8912 13.2478 12.078 13.2478C10.2746 13.2478 8.80261 11.7856 8.80261 9.97241C8.80261 9.63122 8.85135 9.29978 8.94883 8.99759C9.36801 7.67184 10.606 6.69702 12.078 6.69702C13.5305 6.69702 14.7587 7.64259 15.1877 8.94885C15.2949 9.27054 15.3534 9.61173 15.3534 9.97241Z" fill="#F5E89D"/>
<path id="Vector_16" d="M15.3534 9.61169C15.3534 11.4151 13.8912 12.8871 12.078 12.8871C10.2746 12.8871 8.80261 11.4248 8.80261 9.61169C8.80261 9.2705 8.85135 8.93907 8.94883 8.63687C9.36801 7.31112 10.606 6.3363 12.078 6.3363C13.5305 6.3363 14.7587 7.28188 15.1877 8.58813C15.2949 8.90982 15.3534 9.25101 15.3534 9.61169Z" fill="url(#paint1_linear_113_2816)"/>
<path id="Vector_17" d="M15.1876 8.58811C14.8757 8.23718 14.4175 7.80826 13.7742 7.74977C13.3452 7.71078 12.7603 7.8375 12.4094 8.22743C11.9902 8.70509 12.0682 9.38746 11.9317 9.38746C11.7855 9.38746 11.8538 8.65635 11.4151 8.26642C10.9569 7.857 10.0991 7.95448 9.5337 8.22743C9.30949 8.33466 9.11453 8.47114 8.95856 8.62711C9.37773 7.30136 10.6157 6.32654 12.0877 6.32654C13.5304 6.33629 14.7587 7.28186 15.1876 8.58811Z" fill="#EB9C26"/>
<path id="Vector_18" d="M11.9318 11.074C12.0195 11.074 11.9902 11.4347 12.2535 11.7953C12.4874 12.1268 12.7506 12.1755 12.7311 12.312C12.7019 12.4972 12.2535 12.5849 11.9708 12.5947C11.6686 12.6044 11.2006 12.5362 11.1714 12.351C11.1422 12.2145 11.3859 12.1658 11.6101 11.8343C11.8733 11.4444 11.8343 11.074 11.9318 11.074Z" fill="#EB9C26"/>
</g>
</g>
</g>
<defs>
<linearGradient id="paint0_linear_113_2816" x1="12.0774" y1="4.27855" x2="12.0774" y2="16.9088" gradientUnits="userSpaceOnUse">
<stop stop-color="#F5DD53"/>
<stop offset="1" stop-color="#F5AF25"/>
</linearGradient>
<linearGradient id="paint1_linear_113_2816" x1="12.0775" y1="13.7546" x2="12.0775" y2="8.1188" gradientUnits="userSpaceOnUse">
<stop stop-color="#F5DD53"/>
<stop offset="1" stop-color="#F5AF25"/>
</linearGradient>
</defs>
</svg>
