<svg width="24" height="24" viewBox="0 0 24 24" fill="none" xmlns="http://www.w3.org/2000/svg">
<g id="Group">
<g id="Group_2">
<path id="Vector" d="M11.8745 15.2071C11.6838 15.5684 11.473 16.0703 11.3626 16.6926C11.1317 17.9574 11.4228 19.0013 11.6135 19.5232C11.5935 19.5534 11.3526 19.8645 10.9511 19.8444C10.5696 19.8244 10.3588 19.5433 10.3388 19.5032C10.2785 19.0715 10.2484 18.5295 10.3086 17.9072C10.4492 16.6023 10.9611 15.6186 11.3224 15.0665C11.5031 15.1067 11.6938 15.1569 11.8745 15.2071Z" fill="#EB9C26"/>
<path id="Vector_2" d="M20.8883 9.09415C21.1995 10.2987 20.5471 11.5333 19.7039 12.0151C19.3325 12.2359 18.9912 12.2962 18.3187 12.2861C17.9875 12.2861 17.5659 12.256 17.0239 12.2259C16.6725 12.2058 16.2409 12.1757 15.6688 12.1456C16.1305 12.3162 16.4818 12.4467 16.783 12.5571C17.9072 12.9687 18.4492 13.1795 18.8106 13.4605C18.9511 13.5709 19.0515 13.6814 19.1619 13.8219C19.7441 14.6048 19.8545 16 19.0816 16.9837C18.3488 17.9172 17.2146 17.9875 17.0339 17.9875C16.9837 18.2786 16.8432 18.8006 16.4116 19.2021C15.6085 19.9448 14.3338 19.7943 13.5609 19.443C12.9887 19.182 12.5772 18.7604 12.2761 18.2987C11.6437 17.325 11.4831 16.1506 11.4229 15.729C11.4128 15.6487 11.4028 15.5684 11.3927 15.4881C11.2622 15.709 11.1117 15.9298 10.941 16.1506C10.8708 16.241 10.7604 16.3815 10.6198 16.5421C9.99751 17.2447 8.7428 18.4191 7.197 18.2485C6.35384 18.1581 5.17944 17.6261 4.87831 16.5722C4.71771 16.0101 4.85823 15.4881 4.96865 15.2071C4.81808 15.1067 3.87455 14.4643 3.72398 13.2899C3.67379 12.8884 3.72398 12.4869 3.85447 12.1356C4.11545 11.3928 4.67756 10.8005 5.27981 10.5496C5.87204 10.2987 6.34381 10.3689 7.9699 10.6801C8.0502 10.6901 8.12047 10.7102 8.21081 10.7202C8.06024 10.6399 7.89964 10.5396 7.74907 10.4392C7.22712 10.0879 5.30993 8.78298 5.37015 6.86579C5.40027 6.02263 5.83189 4.80808 6.85573 4.42665C7.4078 4.21586 7.92975 4.32627 8.22084 4.41661C8.31118 4.25601 8.87329 3.27232 10.0377 3.03142C11.2522 2.78047 12.4567 3.49315 12.8984 4.36642C13.1895 4.93857 13.1594 5.42037 12.9787 7.05651C12.9385 7.39779 12.8984 7.80933 12.8382 8.34133C12.9686 7.9599 13.1393 7.56843 13.3802 7.187C13.7014 6.64497 14.916 4.65751 16.8231 4.6274C17.3752 4.61736 18.1079 4.77797 18.66 5.16943C18.9511 5.37019 19.192 5.6412 19.3425 5.98248C19.5734 6.52451 19.4931 7.05651 19.4229 7.3476C19.5835 7.4279 20.5973 7.94986 20.8883 9.09415Z" fill="url(#paint0_linear_113_2769)"/>
<path id="Vector_3" d="M11.2723 10.5697C11.202 10.6099 10.2886 9.39533 9.51568 7.86961C8.73274 6.31378 8.28105 4.83824 8.36135 4.80813C8.42158 4.77802 8.78293 5.64126 10.0176 8.0804C10.9812 9.9474 11.3225 10.5396 11.2723 10.5697Z" fill="#F5E89D"/>
<path id="Vector_4" d="M16.6926 12.9487C16.6725 13.0089 16.3412 12.8182 15.9598 12.9386C15.5182 13.0791 15.3375 13.5509 15.2572 13.5007C15.1769 13.4606 15.4379 13.0691 15.2873 12.6977C15.1769 12.4267 14.9159 12.3464 14.946 12.2761C14.9862 12.1958 15.3776 12.2962 15.6788 12.3966C16.2208 12.5973 16.7227 12.8784 16.6926 12.9487Z" fill="#F5E89D"/>
<path id="Vector_5" d="M14.936 5.79182C14.9661 5.82193 14.5345 6.09295 14.4743 6.57475C14.404 7.11679 14.8457 7.57852 14.7654 7.63874C14.6951 7.68893 14.5044 7.35769 14.1731 7.33761C13.7817 7.3075 13.5107 7.72908 13.4404 7.66886C13.3701 7.61867 13.5408 7.24728 13.8118 6.87588C14.2936 6.17325 14.8959 5.75167 14.936 5.79182Z" fill="#F5E89D"/>
<path id="Vector_6" d="M7.50814 10.9912C7.4981 11.0816 7.01629 10.921 6.71517 11.212C6.27351 11.6236 6.58468 12.5972 6.47426 12.6173C6.38392 12.6374 6.33373 11.995 5.85193 11.6336C5.44038 11.3225 4.96862 11.4329 4.9385 11.2622C4.90839 11.1016 5.34001 10.8507 5.72144 10.7403C6.62483 10.4793 7.52821 10.8708 7.50814 10.9912Z" fill="#F5E89D"/>
<path id="Vector_7" d="M6.81556 13.4304C6.93601 13.4203 7.16687 13.6412 7.09661 13.8821C7.02635 14.123 6.71518 14.1932 6.62484 14.1129C6.46424 14.0025 6.63488 13.4505 6.81556 13.4304Z" fill="#F5E89D"/>
<path id="Vector_8" d="M7.26727 4.71774C7.3275 4.77797 6.77543 5.12929 6.80554 5.67132C6.83565 6.3338 7.71897 6.73531 7.60855 6.93606C7.52825 7.09666 7.01633 6.79553 6.57468 7.04647C6.16313 7.27734 6.16313 7.75915 5.99249 7.74911C5.79174 7.73907 5.53076 7.0264 5.66125 6.37395C5.88208 5.22966 7.17693 4.6274 7.26727 4.71774Z" fill="#F5E89D"/>
<path id="Vector_9" d="M8.95359 3.98493C8.91344 3.87452 9.29487 3.56335 9.71646 3.42283C10.5395 3.13173 11.453 3.48305 11.4429 3.62358C11.4429 3.67377 11.3124 3.67377 10.3087 3.83437C9.24469 4.00501 8.99374 4.06524 8.95359 3.98493Z" fill="#F5E89D"/>
<path id="Vector_10" d="M12.1355 4.34638C12.2359 4.29619 12.4968 4.5672 12.6273 4.83822C12.8381 5.29995 12.6876 5.84198 12.5571 5.85202C12.3463 5.8721 11.9347 4.45679 12.1355 4.34638Z" fill="#F5E89D"/>
<path id="Vector_11" d="M19.0816 16.9938C18.3488 17.9273 17.2146 17.9975 17.0339 17.9975C16.9837 18.2886 16.8432 18.8106 16.4116 19.2121C15.6086 19.9549 14.3338 19.8043 13.5609 19.453C12.9887 19.192 12.5772 18.7704 12.2761 18.3087C12.9084 18.8608 13.9222 19.4931 15.0063 19.2522C15.7089 19.1017 16.5822 18.5496 16.5822 17.9674C16.5822 17.5559 16.1506 17.3652 15.5283 16.793C14.2635 15.6286 13.6613 14.2133 13.7616 14.1431C13.852 14.0728 14.9059 15.0565 15.8093 16.2911C16.4517 17.1744 16.532 17.5157 16.9335 17.6161C17.7365 17.8068 18.9009 16.8432 19.2121 15.6889C19.453 14.7955 19.1318 14.0025 18.8106 13.4806C18.9511 13.591 19.0515 13.7014 19.1619 13.8419C19.734 14.6249 19.8444 16.0101 19.0816 16.9938Z" fill="#EB9C26"/>
<path id="Vector_12" d="M20.8883 9.09412C21.1995 10.2986 20.547 11.5333 19.7039 12.0151C19.3325 12.2359 18.9912 12.2961 18.3187 12.2861C19.1317 12.1255 19.8143 11.7139 20.1957 11.0916C20.2559 11.0013 20.5069 10.5496 20.5269 9.92725C20.547 9.09412 20.1355 8.04017 19.3525 7.729C19.1919 7.66878 18.7503 7.52825 16.8933 8.43164C15.2773 9.23465 14.5044 9.87706 14.4542 9.8068C14.3839 9.71646 15.4379 8.15059 17.1041 7.80931C17.8067 7.66878 18.3588 7.78923 18.7503 7.34757C19.1518 6.88584 19.0414 6.18321 19.0213 6.06276C18.9611 5.7014 18.8105 5.41031 18.6499 5.17944C18.941 5.3802 19.1819 5.65121 19.3325 5.99249C19.5633 6.53453 19.483 7.06652 19.4128 7.35761C19.5834 7.42788 20.5972 7.94983 20.8883 9.09412Z" fill="#EB9C26"/>
<path id="Vector_13" d="M10.6198 16.5522C9.99751 17.2548 8.7428 18.4292 7.197 18.2586C6.35384 18.1682 5.17944 17.6362 4.87831 16.5823C4.71771 16.0202 4.85823 15.4982 4.96865 15.2171C4.81808 15.1168 3.87455 14.4744 3.72398 13.3C3.67379 12.8985 3.72398 12.4969 3.85447 12.1456C3.83439 12.4869 3.85447 12.9085 4.04519 13.3602C4.13552 13.581 4.3965 14.2033 4.99876 14.4643C5.54079 14.7052 6.05271 14.5145 6.11294 14.6751C6.16313 14.8458 5.60102 14.9963 5.40027 15.4279C5.11921 16.0503 5.66125 17.034 6.1832 17.4355C7.08659 18.1582 8.85322 17.8169 10.6198 16.5522Z" fill="#EB9C26"/>
<path id="Vector_14" d="M11.4329 15.0464C11.5333 15.0263 11.192 13.9523 11.724 13.4504C11.8344 13.3501 12.0151 13.2396 11.9849 13.1192C11.9649 13.0489 11.8946 13.0289 11.5935 12.8984C11.2823 12.7578 11.2522 12.7277 11.212 12.7478C11.0213 12.8181 11.0715 13.4304 11.1117 13.7516C11.1819 14.4341 11.3626 15.0565 11.4329 15.0464Z" fill="#EB9C26"/>
<path id="Vector_15" d="M10.118 12.7378C10.128 12.8081 9.63614 12.8382 8.78295 13.2196C7.9699 13.581 7.55835 13.9323 7.49813 13.8721C7.44794 13.8118 7.77918 13.3601 8.25095 13.059C9.09411 12.537 10.1079 12.6475 10.118 12.7378Z" fill="#F5E89D"/>
<path id="Vector_16" d="M12.9084 10.6902C12.9887 10.7805 12.4868 11.1118 12.4467 11.6438C12.4065 12.1456 12.7779 12.517 12.6876 12.5973C12.5772 12.6877 12.1255 12.0955 11.744 12.2159C11.4027 12.3163 11.3024 12.9286 11.202 12.8985C11.1317 12.8784 11.2421 12.5773 11.0715 12.3966C10.9009 12.2159 10.5897 12.3464 10.5395 12.236C10.4893 12.1155 10.8507 11.975 11.0815 11.5534C11.3024 11.162 11.192 10.8909 11.3827 10.7906C11.5533 10.7002 11.6838 10.901 12.0351 10.9211C12.527 10.9411 12.8381 10.6099 12.9084 10.6902Z" fill="#EB9C26"/>
<path id="Vector_17" d="M13.9423 10.0578C13.9222 9.99757 13.6713 9.98753 13.4805 10.108C13.33 10.2084 13.2296 10.389 13.2698 10.4392C13.34 10.5296 13.9724 10.1682 13.9423 10.0578Z" fill="#EB9C26"/>
<path id="Vector_18" d="M10.7101 8.87331C10.8105 8.76289 11.1418 8.85323 11.3325 9.05398C11.6236 9.37519 11.483 9.91722 11.3224 9.95737C11.0916 10.0076 10.5295 9.07406 10.7101 8.87331Z" fill="#F5E89D"/>
<path id="Vector_19" d="M19.0715 7.89968C19.2722 7.79931 19.6135 8.04021 19.7741 8.20081C20.5671 8.96367 20.3162 10.5697 20.005 10.64C19.8243 10.6801 19.7741 10.1381 19.1919 9.82691C18.6098 9.51575 17.9975 9.69642 17.9674 9.5559C17.9473 9.43544 18.419 9.39529 18.7101 9.00382C19.0414 8.54209 18.8105 8.03017 19.0715 7.89968Z" fill="#F5E89D"/>
<path id="Vector_20" d="M18.4793 7.03641C18.6299 7.03641 18.8607 6.45423 18.7102 5.94231C18.4793 5.14933 17.4253 4.8482 17.3551 4.94858C17.3049 5.00881 17.7365 5.24971 17.6964 5.59099C17.6662 5.92223 17.2447 6.06276 17.2949 6.20328C17.345 6.34381 17.7164 6.19325 18.0376 6.40404C18.3689 6.6349 18.3488 7.03641 18.4793 7.03641Z" fill="#F5E89D"/>
<path id="Vector_21" d="M5.8419 15.2974C5.68129 15.3075 5.52069 15.729 5.54077 16.1205C5.58092 16.8934 6.3237 17.3351 6.404 17.3852C6.8557 17.6462 7.39773 17.6964 7.44792 17.576C7.50815 17.4354 6.83562 17.1945 6.80551 16.7127C6.78544 16.3012 7.24717 16.0101 7.15683 15.8696C7.07653 15.7491 6.74528 16.0101 6.404 15.8696C6.04265 15.719 6.01254 15.2773 5.8419 15.2974Z" fill="#F5E89D"/>
<path id="Vector_22" d="M18.8005 15.3777C18.921 15.448 18.7804 15.9198 18.6098 16.2209C18.2485 16.8533 17.4856 17.1243 17.3852 17.0038C17.2146 16.793 18.5596 15.2372 18.8005 15.3777Z" fill="#F5E89D"/>
</g>
</g>
<defs>
<linearGradient id="paint0_linear_113_2769" x1="9.06214" y1="7.35556" x2="16.0095" y2="16.483" gradientUnits="userSpaceOnUse">
<stop stop-color="#F5DD53"/>
<stop offset="1" stop-color="#F5AF25"/>
</linearGradient>
</defs>
</svg>
